<svg width="300" height="300" viewBox="0 0 300 300" fill="none" xmlns="http://www.w3.org/2000/svg">
<g clip-path="url(#clip0_149_153664)">
<path d="M150 300C232.843 300 300 232.843 300 150C300 67.1573 232.843 0 150 0C67.1573 0 0 67.1573 0 150C0 232.843 67.1573 300 150 300Z" fill="#E74C2A" fill-opacity="0.1"/>
<path d="M149.235 35.2279L149.195 46.2115L154.412 46.2311C154.864 47.9024 155.525 49.5102 156.379 51.0164L152.677 54.6918L160.408 62.4803L164.112 58.8049C165.612 59.6684 167.214 60.3392 168.882 60.8016L168.864 66.0197L179.848 66.059L179.866 60.8426C181.537 60.3902 183.145 59.7293 184.651 58.8754L188.328 62.5787L196.117 54.8459L192.44 51.1426C193.303 49.6426 193.975 48.0398 194.438 46.3721L199.654 46.3918L199.694 35.4082L194.477 35.3885C194.025 33.7179 193.364 32.1107 192.51 30.6049L196.213 26.9279L188.481 19.1393L184.777 22.8147C183.275 21.9518 181.67 21.2814 180 20.8197L180.018 15.6033L169.043 15.5623L169.025 20.7803C167.354 21.2327 165.746 21.8936 164.24 22.7475L160.564 19.0443L152.774 26.777L156.451 30.4803C155.587 31.9804 154.916 33.5831 154.453 35.2508L149.235 35.2279ZM174.481 29.3852C176.74 29.3934 178.946 30.0713 180.82 31.3333C182.694 32.5952 184.152 34.3846 185.009 36.4751C185.866 38.5655 186.084 40.8631 185.635 43.0774C185.186 45.2917 184.091 47.3232 182.487 48.9149C180.884 50.5066 178.844 51.5871 176.627 52.0197C174.409 52.4523 172.113 52.2176 170.029 51.3453C167.945 50.473 166.166 49.0023 164.918 47.1191C163.67 45.2359 163.008 43.0249 163.017 40.7656C163.028 37.7366 164.242 34.8361 166.391 32.7019C168.541 30.5678 171.45 29.3748 174.479 29.3852H174.481Z" fill="#616161"/>
<path d="M229.529 74.1525L229.496 83.2147L233.804 83.2311C234.176 84.6109 234.72 85.9383 235.424 87.182L232.367 90.218L238.76 96.6492L241.803 93.6147C243.04 94.3267 244.362 94.8808 245.737 95.2639L245.722 99.5721L254.785 99.6049L254.801 95.2967C256.181 94.9243 257.508 94.3796 258.752 93.6754L261.803 96.7328L268.234 90.3393L265.199 87.282C265.912 86.0448 266.466 84.723 266.849 83.3475L271.157 83.3639L271.19 74.3L266.881 74.2852C266.509 72.9049 265.964 71.577 265.26 70.3328L268.317 67.2967L261.924 60.8656L258.867 63.9016C257.629 63.1891 256.308 62.635 254.932 62.2524L254.949 57.9443L245.885 57.9115L245.87 62.2197C244.49 62.5915 243.162 63.1357 241.917 63.8393L238.881 60.782L232.45 67.1754L235.486 70.2328C234.774 71.4702 234.22 72.792 233.837 74.1672L229.529 74.1525ZM250.375 69.3262C252.24 69.333 254.062 69.8929 255.609 70.9351C257.157 71.9772 258.361 73.4548 259.068 75.181C259.776 76.9072 259.956 78.8045 259.585 80.633C259.214 82.4614 258.31 84.1389 256.986 85.4532C255.662 86.7676 253.978 87.6599 252.147 88.0171C250.316 88.3744 248.42 88.1807 246.699 87.4605C244.978 86.7403 243.509 85.5259 242.478 83.9709C241.447 82.4159 240.901 80.5902 240.908 78.7246C240.912 77.4858 241.161 76.2601 241.639 75.1174C242.117 73.9747 242.816 72.9374 243.695 72.0647C244.574 71.1919 245.616 70.5009 246.762 70.0311C247.909 69.5612 249.136 69.3217 250.375 69.3262Z" fill="#616161"/>
<path d="M218.751 58.6541C212.407 65.2836 207.868 70.4738 209.796 72.2902C211.751 74.1344 220.496 71.2476 231.256 61.0164C226.989 60.6558 223.018 59.0164 218.751 58.6541Z" fill="#BC8271"/>
<path d="M214.698 57.0836H179.938V117.567H214.698V57.0836Z" fill="#D3BBA3"/>
<path d="M200.381 61.4033H197.391V68.9049H200.381V61.4033Z" fill="white"/>
<path d="M205.889 61.4033H202.898V68.9049H205.889V61.4033Z" fill="white"/>
<path d="M211.396 61.4033H208.406V68.9049H211.396V61.4033Z" fill="white"/>
<path d="M200.381 75.218H197.391V82.7197H200.381V75.218Z" fill="white"/>
<path d="M205.889 75.218H202.898V82.7197H205.889V75.218Z" fill="white"/>
<path d="M211.396 75.218H208.406V82.7197H211.396V75.218Z" fill="white"/>
<path d="M200.381 89.0344H197.391V96.5361H200.381V89.0344Z" fill="white"/>
<path d="M205.889 89.0344H202.898V96.5361H205.889V89.0344Z" fill="white"/>
<path d="M211.396 89.0344H208.406V96.5361H211.396V89.0344Z" fill="white"/>
<path d="M183.768 61.4033H180.777V68.9049H183.768V61.4033Z" fill="white"/>
<path d="M189.275 61.4033H186.285V68.9049H189.275V61.4033Z" fill="white"/>
<path d="M194.783 61.4033H191.793V68.9049H194.783V61.4033Z" fill="white"/>
<path d="M183.768 75.218H180.777V82.7197H183.768V75.218Z" fill="white"/>
<path d="M189.275 75.218H186.285V82.7197H189.275V75.218Z" fill="white"/>
<path d="M194.783 75.218H191.793V82.7197H194.783V75.218Z" fill="white"/>
<path d="M183.768 89.0344H180.777V96.5361H183.768V89.0344Z" fill="white"/>
<path d="M189.275 89.0344H186.285V96.5361H189.275V89.0344Z" fill="white"/>
<path d="M194.783 89.0344H191.793V96.5361H194.783V89.0344Z" fill="white"/>
<path d="M200.381 102.292H197.391V109.793H200.381V102.292Z" fill="white"/>
<path d="M205.889 102.292H202.898V109.793H205.889V102.292Z" fill="white"/>
<path d="M211.396 102.292H208.406V109.793H211.396V102.292Z" fill="white"/>
<path d="M183.768 102.292H180.777V109.793H183.768V102.292Z" fill="white"/>
<path d="M189.275 102.292H186.285V109.793H189.275V102.292Z" fill="white"/>
<path d="M194.783 102.292H191.793V109.793H194.783V102.292Z" fill="white"/>
<path d="M220.941 17.8049C217.878 21.882 214.503 26.3656 210.383 31.8279C210.383 31.8279 207.967 35.0344 207.965 35.0344C204.577 35.2115 198.991 35.0344 193.423 38.0459C188.477 40.7262 183.683 45.1213 184.188 47.6639C184.464 49.0558 186.006 49.3033 191.073 47.1869C185.065 51.923 182.205 55.6935 183.368 57.8574C184.365 59.7131 187.49 58.5918 191.893 54.8377C188.257 57.9394 182.513 63.3476 184.352 65.8935C186.057 68.0066 191.413 64.0312 195.227 60.9344C190.736 65.5246 189.162 68.0967 190.816 69.7131C193.213 72.0492 204.008 64.1049 207.886 64.0049C216.86 63.7721 222.28 66.7246 228.946 62.7361C230.258 61.9399 231.448 60.9594 232.482 59.8246C235.573 56.582 242.003 49.4164 251.195 39.2656C242.034 30.8914 231.872 23.6831 220.941 17.8049Z" fill="#BC8271"/>
<path d="M195.219 61.1C195.193 61.1001 195.166 61.0935 195.142 61.0809C195.119 61.0683 195.098 61.0501 195.083 61.0279C195.059 60.992 195.049 60.9479 195.057 60.9051C195.065 60.8624 195.09 60.8246 195.126 60.8L195.311 60.6721C196.528 59.8312 198.795 58.2656 200.721 57.5918C201.142 57.4443 201.741 57.2099 202.375 56.9607C203.754 56.4197 205.316 55.8131 206.036 55.6967C206.057 55.6935 206.079 55.6945 206.1 55.6996C206.121 55.7048 206.14 55.714 206.158 55.7268C206.175 55.7396 206.19 55.7557 206.201 55.7742C206.212 55.7926 206.219 55.8131 206.223 55.8344C206.229 55.8773 206.219 55.9209 206.193 55.9559C206.168 55.991 206.129 56.0145 206.087 56.0213C205.401 56.1262 203.792 56.759 202.495 57.2672C201.857 57.5164 201.257 57.759 200.829 57.9017C198.946 58.5574 196.701 60.1099 195.496 60.9426L195.311 61.0705C195.284 61.0893 195.252 61.0996 195.219 61.1Z" fill="#363E44"/>
<path d="M191.882 55.0017C191.847 55.0016 191.814 54.9904 191.785 54.9697C191.757 54.949 191.737 54.92 191.726 54.8867C191.716 54.8535 191.716 54.8177 191.728 54.7848C191.739 54.7518 191.76 54.7232 191.789 54.7033C192.347 54.2718 192.883 53.8117 193.394 53.3246C194.869 51.9771 196.72 50.3017 198.112 49.8148C199.281 49.4067 200.485 49.1071 201.709 48.9197C201.752 48.9132 201.796 48.9242 201.832 48.9503C201.867 48.9764 201.891 49.0156 201.897 49.059C201.904 49.1025 201.893 49.1468 201.866 49.1822C201.84 49.2175 201.801 49.241 201.758 49.2476C200.554 49.4318 199.37 49.7265 198.22 50.1279C196.89 50.5918 194.997 52.3131 193.613 53.5705C193.092 54.0675 192.545 54.5364 191.974 54.9754C191.947 54.9931 191.915 55.0022 191.882 55.0017Z" fill="#363E44"/>
<path d="M191.067 47.3508C191.027 47.3512 190.989 47.3372 190.959 47.3115C190.942 47.2972 190.929 47.2799 190.919 47.2604C190.91 47.241 190.904 47.2198 190.903 47.1982C190.901 47.1765 190.904 47.1548 190.911 47.1343C190.918 47.1138 190.929 47.0949 190.944 47.0787C193.826 43.7885 195.724 42.2361 197.714 41.541C198.883 41.1322 200.087 40.8325 201.311 40.6459C201.355 40.6392 201.399 40.65 201.435 40.676C201.47 40.7019 201.494 40.741 201.5 40.7844C201.507 40.8279 201.496 40.8723 201.47 40.9078C201.444 40.9433 201.405 40.967 201.362 40.9738C200.158 41.1584 198.973 41.4531 197.823 41.8541C195.891 42.5295 194.032 44.0574 191.19 47.3C191.174 47.3166 191.155 47.3297 191.134 47.3385C191.113 47.3472 191.09 47.3514 191.067 47.3508Z" fill="#363E44"/>
<path d="M225.095 125.228H203.02V173.064H225.095V125.228Z" fill="#A3B6D3"/>
<path d="M148.852 125.228H122.027V165.51H148.852V125.228Z" fill="#F7F1EB"/>
<path d="M239.485 101.698H219.945V169.026H239.485V101.698Z" fill="#E6D0BE"/>
<path d="M290.18 108.171H253.078V210.559H290.18V108.171Z" fill="#EF9173"/>
<path d="M261.727 112.941H257.402V117.266H261.727V112.941Z" fill="white"/>
<path d="M269.688 112.941H265.363V117.266H269.688V112.941Z" fill="white"/>
<path d="M277.653 112.941H273.328V117.266H277.653V112.941Z" fill="white"/>
<path d="M285.618 112.941H281.293V117.266H285.618V112.941Z" fill="white"/>
<path d="M261.727 120.903H257.402V125.228H261.727V120.903Z" fill="white"/>
<path d="M269.688 120.903H265.363V125.228H269.688V120.903Z" fill="white"/>
<path d="M277.653 120.903H273.328V125.228H277.653V120.903Z" fill="white"/>
<path d="M285.618 120.903H281.293V125.228H285.618V120.903Z" fill="white"/>
<path d="M261.727 128.867H257.402V133.192H261.727V128.867Z" fill="white"/>
<path d="M269.688 128.867H265.363V133.192H269.688V128.867Z" fill="white"/>
<path d="M277.653 128.867H273.328V133.192H277.653V128.867Z" fill="white"/>
<path d="M285.618 128.867H281.293V133.192H285.618V128.867Z" fill="white"/>
<path d="M261.727 136.831H257.402V141.156H261.727V136.831Z" fill="white"/>
<path d="M269.688 136.831H265.363V141.156H269.688V136.831Z" fill="white"/>
<path d="M277.653 136.831H273.328V141.156H277.653V136.831Z" fill="white"/>
<path d="M285.618 136.831H281.293V141.156H285.618V136.831Z" fill="white"/>
<path d="M261.727 144.793H257.402V149.118H261.727V144.793Z" fill="white"/>
<path d="M269.688 144.793H265.363V149.118H269.688V144.793Z" fill="white"/>
<path d="M277.653 144.793H273.328V149.118H277.653V144.793Z" fill="white"/>
<path d="M285.618 144.793H281.293V149.118H285.618V144.793Z" fill="white"/>
<path d="M261.727 152.757H257.402V157.082H261.727V152.757Z" fill="white"/>
<path d="M269.688 152.757H265.363V157.082H269.688V152.757Z" fill="white"/>
<path d="M277.653 152.757H273.328V157.082H277.653V152.757Z" fill="white"/>
<path d="M285.618 152.757H281.293V157.082H285.618V152.757Z" fill="white"/>
<path d="M261.727 160.72H257.402V165.044H261.727V160.72Z" fill="white"/>
<path d="M269.688 160.72H265.363V165.044H269.688V160.72Z" fill="white"/>
<path d="M277.653 160.72H273.328V165.044H277.653V160.72Z" fill="white"/>
<path d="M285.618 160.72H281.293V165.044H285.618V160.72Z" fill="white"/>
<path d="M261.727 168.684H257.402V173.008H261.727V168.684Z" fill="white"/>
<path d="M269.688 168.684H265.363V173.008H269.688V168.684Z" fill="white"/>
<path d="M277.653 168.684H273.328V173.008H277.653V168.684Z" fill="white"/>
<path d="M285.618 168.684H281.293V173.008H285.618V168.684Z" fill="white"/>
<path d="M261.727 176.648H257.402V180.972H261.727V176.648Z" fill="white"/>
<path d="M269.688 176.648H265.363V180.972H269.688V176.648Z" fill="white"/>
<path d="M277.653 176.648H273.328V180.972H277.653V176.648Z" fill="white"/>
<path d="M285.618 176.648H281.293V180.972H285.618V176.648Z" fill="white"/>
<path d="M261.727 184.61H257.402V188.934H261.727V184.61Z" fill="white"/>
<path d="M269.688 184.61H265.363V188.934H269.688V184.61Z" fill="white"/>
<path d="M277.653 184.61H273.328V188.934H277.653V184.61Z" fill="white"/>
<path d="M285.618 184.61H281.293V188.934H285.618V184.61Z" fill="white"/>
<path d="M261.727 192.574H257.402V196.898H261.727V192.574Z" fill="white"/>
<path d="M269.688 192.574H265.363V196.898H269.688V192.574Z" fill="white"/>
<path d="M277.653 192.574H273.328V196.898H277.653V192.574Z" fill="white"/>
<path d="M285.618 192.574H281.293V196.898H285.618V192.574Z" fill="white"/>
<path d="M261.727 200.536H257.402V204.861H261.727V200.536Z" fill="white"/>
<path d="M269.688 200.536H265.363V204.861H269.688V200.536Z" fill="white"/>
<path d="M277.653 200.536H273.328V204.861H277.653V200.536Z" fill="white"/>
<path d="M285.618 200.536H281.293V204.861H285.618V200.536Z" fill="white"/>
<path d="M255.938 128.079H227.484V214.423H255.938V128.079Z" fill="#A3B6D3"/>
<path d="M235.848 132.849H231.523V137.174H235.848V132.849Z" fill="white"/>
<path d="M243.809 132.849H239.484V137.174H243.809V132.849Z" fill="white"/>
<path d="M251.774 132.849H247.449V137.174H251.774V132.849Z" fill="white"/>
<path d="M235.848 140.811H231.523V145.136H235.848V140.811Z" fill="white"/>
<path d="M243.809 140.811H239.484V145.136H243.809V140.811Z" fill="white"/>
<path d="M251.774 140.811H247.449V145.136H251.774V140.811Z" fill="white"/>
<path d="M235.848 148.775H231.523V153.1H235.848V148.775Z" fill="white"/>
<path d="M243.809 148.775H239.484V153.1H243.809V148.775Z" fill="white"/>
<path d="M251.774 148.775H247.449V153.1H251.774V148.775Z" fill="white"/>
<path d="M235.848 156.739H231.523V161.064H235.848V156.739Z" fill="white"/>
<path d="M243.809 156.739H239.484V161.064H243.809V156.739Z" fill="white"/>
<path d="M251.774 156.739H247.449V161.064H251.774V156.739Z" fill="white"/>
<path d="M235.848 164.702H231.523V169.026H235.848V164.702Z" fill="white"/>
<path d="M243.809 164.702H239.484V169.026H243.809V164.702Z" fill="white"/>
<path d="M251.774 164.702H247.449V169.026H251.774V164.702Z" fill="white"/>
<path d="M235.848 172.666H231.523V176.99H235.848V172.666Z" fill="white"/>
<path d="M243.809 172.666H239.484V176.99H243.809V172.666Z" fill="white"/>
<path d="M251.774 172.666H247.449V176.99H251.774V172.666Z" fill="white"/>
<path d="M235.848 180.628H231.523V184.952H235.848V180.628Z" fill="white"/>
<path d="M243.809 180.628H239.484V184.952H243.809V180.628Z" fill="white"/>
<path d="M251.774 180.628H247.449V184.952H251.774V180.628Z" fill="white"/>
<path d="M235.848 188.592H231.523V192.916H235.848V188.592Z" fill="white"/>
<path d="M243.809 188.592H239.484V192.916H243.809V188.592Z" fill="white"/>
<path d="M251.774 188.592H247.449V192.916H251.774V188.592Z" fill="white"/>
<path d="M235.848 196.556H231.523V200.88H235.848V196.556Z" fill="white"/>
<path d="M243.809 196.556H239.484V200.88H243.809V196.556Z" fill="white"/>
<path d="M251.774 196.556H247.449V200.88H251.774V196.556Z" fill="white"/>
<path d="M235.848 204.518H231.523V208.843H235.848V204.518Z" fill="white"/>
<path d="M243.809 204.518H239.484V208.843H243.809V204.518Z" fill="white"/>
<path d="M251.774 204.518H247.449V208.843H251.774V204.518Z" fill="white"/>
<path d="M211.286 141.948H184.461V182.229H211.286V141.948Z" fill="#F7F1EB"/>
<path d="M227.487 169.026H193.93V208.843H227.487V169.026Z" fill="#A3B6D3"/>
<path d="M214.801 173.064H212.004V180.077H214.801V173.064Z" fill="white"/>
<path d="M219.949 173.064H217.152V180.077H219.949V173.064Z" fill="white"/>
<path d="M225.097 173.064H222.301V180.077H225.097V173.064Z" fill="white"/>
<path d="M214.801 185.979H212.004V192.992H214.801V185.979Z" fill="white"/>
<path d="M219.949 185.979H217.152V192.992H219.949V185.979Z" fill="white"/>
<path d="M225.097 185.979H222.301V192.992H225.097V185.979Z" fill="white"/>
<path d="M214.801 198.893H212.004V205.907H214.801V198.893Z" fill="white"/>
<path d="M219.949 198.893H217.152V205.907H219.949V198.893Z" fill="white"/>
<path d="M225.097 198.893H222.301V205.907H225.097V198.893Z" fill="white"/>
<path d="M199.273 173.064H196.477V180.077H199.273V173.064Z" fill="white"/>
<path d="M204.422 173.064H201.625V180.077H204.422V173.064Z" fill="white"/>
<path d="M209.57 173.064H206.773V180.077H209.57V173.064Z" fill="white"/>
<path d="M199.273 185.979H196.477V192.992H199.273V185.979Z" fill="white"/>
<path d="M204.422 185.979H201.625V192.992H204.422V185.979Z" fill="white"/>
<path d="M209.57 185.979H206.773V192.992H209.57V185.979Z" fill="white"/>
<path d="M199.273 198.893H196.477V205.907H199.273V198.893Z" fill="white"/>
<path d="M204.422 198.893H201.625V205.907H204.422V198.893Z" fill="white"/>
<path d="M209.57 198.893H206.773V205.907H209.57V198.893Z" fill="white"/>
<path d="M122.371 142.974H104.449V209.295H122.371V142.974Z" fill="#A3B6D3"/>
<path d="M164.846 135.011H137.891V208.843H164.846V135.011Z" fill="#A3B6D3"/>
<path d="M156.02 137.626H153.523V143.89H156.02V137.626Z" fill="white"/>
<path d="M160.622 137.626H158.125V143.89H160.622V137.626Z" fill="white"/>
<path d="M156.02 149.162H153.523V155.426H156.02V149.162Z" fill="white"/>
<path d="M160.622 149.162H158.125V155.426H160.622V149.162Z" fill="white"/>
<path d="M156.02 160.698H153.523V166.962H156.02V160.698Z" fill="white"/>
<path d="M160.622 160.698H158.125V166.962H160.622V160.698Z" fill="white"/>
<path d="M142.149 137.626H139.652V143.89H142.149V137.626Z" fill="white"/>
<path d="M146.751 137.626H144.254V143.89H146.751V137.626Z" fill="white"/>
<path d="M151.348 137.626H148.852V143.89H151.348V137.626Z" fill="white"/>
<path d="M142.149 149.162H139.652V155.426H142.149V149.162Z" fill="white"/>
<path d="M146.751 149.162H144.254V155.426H146.751V149.162Z" fill="white"/>
<path d="M151.348 149.162H148.852V155.426H151.348V149.162Z" fill="white"/>
<path d="M142.149 160.698H139.652V166.962H142.149V160.698Z" fill="white"/>
<path d="M146.751 160.698H144.254V166.962H146.751V160.698Z" fill="white"/>
<path d="M151.348 160.698H148.852V166.962H151.348V160.698Z" fill="white"/>
<path d="M156.02 172.267H153.523V178.531H156.02V172.267Z" fill="white"/>
<path d="M160.622 172.267H158.125V178.531H160.622V172.267Z" fill="white"/>
<path d="M156.02 183.803H153.523V190.067H156.02V183.803Z" fill="white"/>
<path d="M160.622 183.803H158.125V190.067H160.622V183.803Z" fill="white"/>
<path d="M156.02 195.339H153.523V201.603H156.02V195.339Z" fill="white"/>
<path d="M160.622 195.339H158.125V201.603H160.622V195.339Z" fill="white"/>
<path d="M142.149 172.267H139.652V178.531H142.149V172.267Z" fill="white"/>
<path d="M146.751 172.267H144.254V178.531H146.751V172.267Z" fill="white"/>
<path d="M151.348 172.267H148.852V178.531H151.348V172.267Z" fill="white"/>
<path d="M142.149 183.803H139.652V190.067H142.149V183.803Z" fill="white"/>
<path d="M146.751 183.803H144.254V190.067H146.751V183.803Z" fill="white"/>
<path d="M151.348 183.803H148.852V190.067H151.348V183.803Z" fill="white"/>
<path d="M142.149 195.339H139.652V201.603H142.149V195.339Z" fill="white"/>
<path d="M146.751 195.339H144.254V201.603H146.751V195.339Z" fill="white"/>
<path d="M151.348 195.339H148.852V201.603H151.348V195.339Z" fill="white"/>
<path d="M190.066 112.941V105.428H184.502V99.3967H171.735V105.428H166.171V112.941H162.309V214.423H193.928V112.941H190.066Z" fill="#EF9173"/>
<path d="M167.45 117.321H162.242V122.53H167.45V117.321Z" fill="white"/>
<path d="M177.04 117.321H171.832V122.53H177.04V117.321Z" fill="white"/>
<path d="M186.63 117.321H181.422V122.53H186.63V117.321Z" fill="white"/>
<path d="M167.45 126.911H162.242V132.12H167.45V126.911Z" fill="white"/>
<path d="M177.04 126.911H171.832V132.12H177.04V126.911Z" fill="white"/>
<path d="M186.63 126.911H181.422V132.12H186.63V126.911Z" fill="white"/>
<path d="M167.45 136.502H162.242V141.71H167.45V136.502Z" fill="white"/>
<path d="M177.04 136.502H171.832V141.71H177.04V136.502Z" fill="white"/>
<path d="M186.63 136.502H181.422V141.71H186.63V136.502Z" fill="white"/>
<path d="M167.45 146.092H162.242V151.3H167.45V146.092Z" fill="white"/>
<path d="M177.04 146.092H171.832V151.3H177.04V146.092Z" fill="white"/>
<path d="M186.63 146.092H181.422V151.3H186.63V146.092Z" fill="white"/>
<path d="M167.45 155.682H162.242V160.89H167.45V155.682Z" fill="white"/>
<path d="M177.04 155.682H171.832V160.89H177.04V155.682Z" fill="white"/>
<path d="M186.63 155.682H181.422V160.89H186.63V155.682Z" fill="white"/>
<path d="M167.45 165.272H162.242V170.48H167.45V165.272Z" fill="white"/>
<path d="M177.04 165.272H171.832V170.48H177.04V165.272Z" fill="white"/>
<path d="M186.63 165.272H181.422V170.48H186.63V165.272Z" fill="white"/>
<path d="M167.45 174.864H162.242V180.072H167.45V174.864Z" fill="white"/>
<path d="M177.04 174.864H171.832V180.072H177.04V174.864Z" fill="white"/>
<path d="M186.63 174.864H181.422V180.072H186.63V174.864Z" fill="white"/>
<path d="M167.45 184.454H162.242V189.662H167.45V184.454Z" fill="white"/>
<path d="M177.04 184.454H171.832V189.662H177.04V184.454Z" fill="white"/>
<path d="M186.63 184.454H181.422V189.662H186.63V184.454Z" fill="white"/>
<path d="M167.45 194.044H162.242V199.252H167.45V194.044Z" fill="white"/>
<path d="M177.04 194.044H171.832V199.252H177.04V194.044Z" fill="white"/>
<path d="M186.63 194.044H181.422V199.252H186.63V194.044Z" fill="white"/>
<path d="M167.45 203.634H162.242V208.843H167.45V203.634Z" fill="white"/>
<path d="M177.04 203.634H171.832V208.843H177.04V203.634Z" fill="white"/>
<path d="M186.63 203.634H181.422V208.843H186.63V203.634Z" fill="white"/>
<path d="M146.816 157.531H109.418V217.926H146.816V157.531Z" fill="#EF9173"/>
<path d="M118.387 161.516H114.062V165.841H118.387V161.516Z" fill="white"/>
<path d="M126.352 161.516H122.027V165.841H126.352V161.516Z" fill="white"/>
<path d="M134.313 161.516H129.988V165.841H134.313V161.516Z" fill="white"/>
<path d="M142.278 161.516H137.953V165.841H142.278V161.516Z" fill="white"/>
<path d="M118.387 169.48H114.062V173.805H118.387V169.48Z" fill="white"/>
<path d="M126.352 169.48H122.027V173.805H126.352V169.48Z" fill="white"/>
<path d="M134.313 169.48H129.988V173.805H134.313V169.48Z" fill="white"/>
<path d="M142.278 169.48H137.953V173.805H142.278V169.48Z" fill="white"/>
<path d="M118.387 177.443H114.062V181.767H118.387V177.443Z" fill="white"/>
<path d="M126.352 177.443H122.027V181.767H126.352V177.443Z" fill="white"/>
<path d="M134.313 177.443H129.988V181.767H134.313V177.443Z" fill="white"/>
<path d="M142.278 177.443H137.953V181.767H142.278V177.443Z" fill="white"/>
<path d="M118.387 185.407H114.062V189.731H118.387V185.407Z" fill="white"/>
<path d="M126.352 185.407H122.027V189.731H126.352V185.407Z" fill="white"/>
<path d="M134.313 185.407H129.988V189.731H134.313V185.407Z" fill="white"/>
<path d="M142.278 185.407H137.953V189.731H142.278V185.407Z" fill="white"/>
<path d="M118.387 193.37H114.062V197.695H118.387V193.37Z" fill="white"/>
<path d="M126.352 193.37H122.027V197.695H126.352V193.37Z" fill="white"/>
<path d="M134.313 193.37H129.988V197.695H134.313V193.37Z" fill="white"/>
<path d="M142.278 193.37H137.953V197.695H142.278V193.37Z" fill="white"/>
<path d="M118.387 201.333H114.062V205.657H118.387V201.333Z" fill="white"/>
<path d="M126.352 201.333H122.027V205.657H126.352V201.333Z" fill="white"/>
<path d="M134.313 201.333H129.988V205.657H134.313V201.333Z" fill="white"/>
<path d="M142.278 201.333H137.953V205.657H142.278V201.333Z" fill="white"/>
<path d="M118.387 209.297H114.062V213.621H118.387V209.297Z" fill="white"/>
<path d="M126.352 209.297H122.027V213.621H126.352V209.297Z" fill="white"/>
<path d="M134.313 209.297H129.988V213.621H134.313V209.297Z" fill="white"/>
<path d="M142.278 209.297H137.953V213.621H142.278V209.297Z" fill="white"/>
<path d="M130.881 25.2738H46.8281V131.336H130.881V25.2738Z" fill="#FF9E88"/>
<path d="M49.2225 80.8607C49.1791 80.8607 49.1374 80.8434 49.1066 80.8126C49.0759 80.7819 49.0586 80.7402 49.0586 80.6967V27.6656C49.0586 27.6221 49.0759 27.5804 49.1066 27.5497C49.1374 27.5189 49.1791 27.5016 49.2225 27.5016H133.278C133.322 27.5016 133.363 27.5189 133.394 27.5497C133.425 27.5804 133.442 27.6221 133.442 27.6656V52.3869C133.442 52.4304 133.425 52.4721 133.394 52.5028C133.363 52.5336 133.322 52.5508 133.278 52.5508C133.235 52.5508 133.193 52.5336 133.162 52.5028C133.132 52.4721 133.114 52.4304 133.114 52.3869V27.8295H49.3865V80.6967C49.3865 80.7402 49.3692 80.7819 49.3384 80.8126C49.3077 80.8434 49.266 80.8607 49.2225 80.8607Z" fill="#363E44"/>
<path d="M126.542 125.859H51.168V30.7492H105.535V50.6049L126.542 50.7131V125.859Z" fill="white"/>
<path d="M126.542 50.659H105.535V30.7492L126.542 50.659Z" fill="#F2E6DC"/>
<path d="M119.112 68.7377H68.543V83.4639H119.112V68.7377Z" fill="#F2E6DC"/>
<path d="M119.112 87.8803H68.543V96.3852H119.112V87.8803Z" fill="#F2E6DC"/>
<path d="M119.112 99.8443H68.543V115.239H119.112V99.8443Z" fill="#F2E6DC"/>
<path d="M63.7828 72.0938C64.1297 70.624 63.2194 69.1513 61.7496 68.8044C60.2798 68.4575 58.8071 69.3678 58.4602 70.8376C58.1133 72.3074 59.0235 73.7801 60.4933 74.127C61.9631 74.4739 63.4359 73.5636 63.7828 72.0938Z" fill="#F2E6DC"/>
<path d="M119.112 52.3869H68.543V64.4524H119.112V52.3869Z" fill="#F2E6DC"/>
<path d="M61.1251 57.8557C62.6352 57.8557 63.8595 56.6315 63.8595 55.1213C63.8595 53.6111 62.6352 52.3869 61.1251 52.3869C59.6149 52.3869 58.3906 53.6111 58.3906 55.1213C58.3906 56.6315 59.6149 57.8557 61.1251 57.8557Z" fill="#F2E6DC"/>
<path d="M61.1251 93.3492C62.6352 93.3492 63.8595 92.1249 63.8595 90.6148C63.8595 89.1046 62.6352 87.8803 61.1251 87.8803C59.6149 87.8803 58.3906 89.1046 58.3906 90.6148C58.3906 92.1249 59.6149 93.3492 61.1251 93.3492Z" fill="#F2E6DC"/>
<path d="M63.0584 104.512C64.1263 103.444 64.1263 101.713 63.0584 100.645C61.9905 99.5771 60.2592 99.5771 59.1913 100.645C58.1235 101.713 58.1235 103.444 59.1913 104.512C60.2592 105.58 61.9905 105.58 63.0584 104.512Z" fill="#F7F1EB"/>
<path d="M103.238 22.5721H74.4727V35.323H103.238V22.5721Z" fill="#E74C2A"/>
<path d="M88.8525 29.8967C86.7849 29.8967 84.7637 29.2836 83.0446 28.1349C81.3254 26.9862 79.9855 25.3535 79.1942 23.4432C78.403 21.533 78.1959 19.431 78.5993 17.4031C79.0027 15.3752 79.9983 13.5125 81.4604 12.0505C82.9224 10.5884 84.7851 9.59278 86.813 9.1894C88.8409 8.78603 90.9429 8.99305 92.8532 9.7843C94.7634 10.5755 96.3961 11.9155 97.5448 13.6346C98.6935 15.3538 99.3066 17.375 99.3066 19.4426C99.3032 22.2142 98.2006 24.8712 96.2409 26.831C94.2811 28.7907 91.6241 29.8933 88.8525 29.8967ZM88.8525 9.3164C86.8498 9.3164 84.892 9.91029 83.2267 11.023C81.5615 12.1357 80.2636 13.7172 79.4971 15.5675C78.7307 17.4178 78.5302 19.4539 78.9209 21.4182C79.3116 23.3825 80.276 25.1868 81.6922 26.603C83.1084 28.0191 84.9127 28.9836 86.877 29.3743C88.8413 29.765 90.8774 29.5645 92.7277 28.798C94.578 28.0316 96.1595 26.7337 97.2722 25.0685C98.3849 23.4032 98.9788 21.4454 98.9788 19.4426C98.9757 16.7579 97.9079 14.184 96.0095 12.2857C94.1111 10.3873 91.5373 9.31943 88.8525 9.3164Z" fill="#E0AA63"/>
<path d="M88.8547 27.5574C87.2493 27.5574 85.68 27.0813 84.3453 26.1894C83.0105 25.2975 81.9702 24.0298 81.3559 22.5466C80.7417 21.0634 80.5811 19.4314 80.8944 17.857C81.2077 16.2825 81.9808 14.8363 83.1161 13.7012C84.2514 12.5662 85.6977 11.7933 87.2723 11.4803C88.8468 11.1674 90.4788 11.3283 91.9618 11.9429C93.4449 12.5574 94.7124 13.598 95.604 14.933C96.4956 16.2679 96.9714 17.8373 96.9711 19.4426C96.9685 21.5943 96.1125 23.657 94.5909 25.1783C93.0693 26.6996 91.0063 27.5552 88.8547 27.5574ZM88.8547 11.6557C87.3143 11.6557 85.8084 12.1125 84.5276 12.9683C83.2468 13.8242 82.2485 15.0406 81.659 16.4637C81.0695 17.8869 80.9153 19.4529 81.2158 20.9637C81.5163 22.4746 82.2581 23.8623 83.3474 24.9516C84.4366 26.0408 85.8244 26.7826 87.3352 27.0831C88.846 27.3837 90.412 27.2294 91.8352 26.6399C93.2584 26.0504 94.4748 25.0521 95.3306 23.7713C96.1864 22.4905 96.6432 20.9847 96.6432 19.4443C96.6415 17.379 95.8204 15.3988 94.3602 13.9383C92.9 12.4778 90.9199 11.6563 88.8547 11.6541V11.6557Z" fill="#E0AA63"/>
<path d="M147.43 280.703H112.316L116.982 164.757L147.43 183.249V280.703Z" fill="#E6D0BE"/>
<path d="M116.983 164.757H64.4336V280.703H116.983V164.757Z" fill="#F7F1EB"/>
<path d="M146.818 280.705H199.367V164.759H146.818V280.705Z" fill="#F7F1EB"/>
<path d="M70.6875 274.448V171.015H116.981L119.606 173.756L125.345 274.448H70.6875Z" fill="white"/>
<path d="M147.432 274.448H116.984V171.015L147.432 189.505V274.448Z" fill="#F2E6DC"/>
<path d="M146.707 261.167C146.685 261.167 146.664 261.163 146.644 261.155C146.624 261.147 146.605 261.135 146.59 261.12L116.918 231.028H82.1639C82.1205 231.028 82.0788 231.011 82.048 230.98C82.0173 230.949 82 230.907 82 230.864V171.015C82 170.971 82.0173 170.93 82.048 170.899C82.0788 170.868 82.1205 170.851 82.1639 170.851C82.2074 170.851 82.2491 170.868 82.2799 170.899C82.3106 170.93 82.3279 170.971 82.3279 171.015V230.7H116.989C117.01 230.7 117.032 230.704 117.052 230.713C117.072 230.721 117.09 230.734 117.105 230.749L146.83 260.889C146.845 260.904 146.857 260.922 146.865 260.942C146.874 260.962 146.878 260.983 146.878 261.005C146.878 261.027 146.874 261.048 146.865 261.068C146.857 261.088 146.845 261.106 146.83 261.121C146.813 261.137 146.794 261.149 146.773 261.157C146.752 261.165 146.729 261.168 146.707 261.167Z" fill="#E6D0BE"/>
<path d="M88.3509 274.052C88.321 274.053 88.2915 274.045 88.2658 274.029C88.2401 274.014 88.2191 273.992 88.205 273.966C88.1847 273.927 88.1803 273.883 88.1929 273.841C88.2055 273.8 88.234 273.765 88.2722 273.744L109.182 262.459V207.672H71.0624C71.0189 207.672 70.9772 207.655 70.9465 207.624C70.9157 207.593 70.8984 207.552 70.8984 207.508C70.8984 207.465 70.9157 207.423 70.9465 207.392C70.9772 207.362 71.0189 207.344 71.0624 207.344H109.346C109.389 207.344 109.431 207.362 109.462 207.392C109.493 207.423 109.51 207.465 109.51 207.508V262.561C109.51 262.59 109.502 262.619 109.487 262.645C109.472 262.67 109.451 262.691 109.425 262.705L88.4247 274.033C88.402 274.045 88.3767 274.052 88.3509 274.052Z" fill="#E6D0BE"/>
<path d="M132.207 274.052C132.163 274.052 132.122 274.035 132.091 274.004C132.06 273.974 132.043 273.932 132.043 273.889V216.01C132.043 215.966 132.06 215.925 132.091 215.894C132.122 215.863 132.163 215.846 132.207 215.846C132.25 215.846 132.292 215.863 132.323 215.894C132.354 215.925 132.371 215.966 132.371 216.01V273.889C132.371 273.932 132.354 273.974 132.323 274.004C132.292 274.035 132.25 274.052 132.207 274.052Z" fill="#E6D0BE"/>
<path d="M193.113 274.448V171.015H146.82V274.448H193.113Z" fill="white"/>
<path d="M181.512 274.052C181.468 274.052 181.426 274.035 181.396 274.004C181.365 273.974 181.348 273.932 181.348 273.889V235.216C181.348 235.173 181.365 235.131 181.396 235.1C181.426 235.07 181.468 235.052 181.512 235.052C181.555 235.052 181.597 235.07 181.628 235.1C181.658 235.131 181.676 235.173 181.676 235.216V273.889C181.676 273.932 181.658 273.974 181.628 274.004C181.597 274.035 181.555 274.052 181.512 274.052Z" fill="#E6D0BE"/>
<path d="M170.711 231.995C170.689 231.995 170.668 231.991 170.648 231.983C170.628 231.975 170.61 231.963 170.595 231.948L161.493 222.848C161.463 222.816 161.446 222.775 161.445 222.731V171.015C161.445 170.971 161.463 170.93 161.493 170.899C161.524 170.868 161.566 170.851 161.609 170.851C161.653 170.851 161.694 170.868 161.725 170.899C161.756 170.93 161.773 170.971 161.773 171.015V222.664L170.826 231.716C170.856 231.747 170.873 231.789 170.873 231.832C170.873 231.875 170.856 231.917 170.826 231.948C170.795 231.978 170.754 231.995 170.711 231.995Z" fill="#E6D0BE"/>
<path d="M168.076 248.544H146.82C146.777 248.544 146.735 248.527 146.704 248.496C146.674 248.466 146.656 248.424 146.656 248.38C146.656 248.337 146.674 248.295 146.704 248.264C146.735 248.234 146.777 248.216 146.82 248.216H168.009L193.264 222.961C193.28 222.945 193.298 222.933 193.318 222.925C193.338 222.917 193.359 222.912 193.381 222.912C193.402 222.912 193.424 222.917 193.444 222.925C193.464 222.933 193.482 222.945 193.497 222.961C193.513 222.976 193.525 222.994 193.533 223.014C193.541 223.034 193.545 223.055 193.545 223.077C193.545 223.099 193.541 223.12 193.533 223.14C193.525 223.16 193.513 223.178 193.497 223.193L168.199 248.497C168.183 248.513 168.164 248.525 168.142 248.533C168.121 248.542 168.099 248.545 168.076 248.544Z" fill="#E6D0BE"/>
<path d="M193.114 200.998H174.539C174.495 200.998 174.454 200.981 174.423 200.95C174.392 200.92 174.375 200.878 174.375 200.834V191.266C174.375 191.222 174.392 191.18 174.423 191.15C174.454 191.119 174.495 191.102 174.539 191.102C174.582 191.102 174.624 191.119 174.655 191.15C174.686 191.18 174.703 191.222 174.703 191.266V200.67H193.114C193.158 200.67 193.2 200.688 193.23 200.719C193.261 200.749 193.278 200.791 193.278 200.834C193.278 200.878 193.261 200.92 193.23 200.95C193.2 200.981 193.158 200.998 193.114 200.998Z" fill="#E6D0BE"/>
<path d="M169.201 187.095C169.158 187.094 169.117 187.077 169.087 187.046C169.056 187.015 169.039 186.974 169.039 186.93C169.039 186.887 169.056 186.845 169.087 186.815L174.377 181.525V171.015C174.377 170.971 174.394 170.93 174.425 170.899C174.456 170.868 174.497 170.851 174.541 170.851C174.584 170.851 174.626 170.868 174.657 170.899C174.688 170.93 174.705 170.971 174.705 171.015V181.592C174.705 181.613 174.701 181.635 174.693 181.655C174.684 181.675 174.672 181.693 174.657 181.708L169.318 187.049C169.287 187.079 169.245 187.096 169.201 187.095Z" fill="#E6D0BE"/>
<path d="M44.5161 103.008C43.2358 102.323 40.1784 100.943 36.9751 101.949C32.0899 103.485 28.7325 109.249 30.0276 114.08C31.3997 119.197 33.5817 120.525 32.7358 123.62C31.3013 128.866 21.1849 126.785 17.1915 133.275C13.9669 138.521 18.439 143.328 15.3079 148.936C12.7554 153.51 7.18822 155.457 2.40625 156.198C4.52592 158.118 12.5063 164.834 24.8456 165.069C27.7226 165.123 36.2177 164.918 44.2767 159.416C62.2489 147.149 61.8325 126.652 60.2423 118.32C59.0144 111.887 56.462 106.287 51.2259 103.718C48.7964 102.523 46.2554 102.685 44.5161 103.008Z" fill="#84524D"/>
<path d="M2.65112 156.095C2.60764 156.099 2.56447 156.085 2.53112 156.057C2.49776 156.029 2.47694 155.989 2.47325 155.945C2.46955 155.902 2.48328 155.858 2.51141 155.825C2.53954 155.792 2.57977 155.771 2.62325 155.767C7.24784 154.957 10.2429 152.78 12.638 148.49C14.1724 145.743 14.0282 143.064 13.8888 140.472C13.7478 137.849 13.6019 135.139 15.2495 132.461C17.3216 129.092 20.8232 127.998 23.9101 127.034C26.8413 126.118 29.3741 125.326 30.0511 122.848C30.6167 120.779 30.297 119.861 29.5954 117.846C29.2675 116.907 28.8626 115.739 28.4265 114.118C27.761 111.638 28.2626 108.674 29.7609 106.192C31.1446 103.897 33.2364 102.295 35.4987 101.787C39.5101 100.885 41.6478 102.046 42.9249 102.741C43.0019 102.784 43.0757 102.825 43.1495 102.862C43.1684 102.873 43.1851 102.887 43.1984 102.905C43.2118 102.922 43.2217 102.941 43.2275 102.963C43.2333 102.984 43.2349 103.005 43.2322 103.027C43.2295 103.049 43.2225 103.07 43.2118 103.089C43.201 103.107 43.1866 103.124 43.1694 103.137C43.1522 103.151 43.1326 103.161 43.1116 103.167C43.0906 103.172 43.0686 103.174 43.047 103.171C43.0254 103.169 43.0045 103.162 42.9855 103.151L42.7593 103.03C41.4478 102.313 39.4544 101.226 35.5626 102.107C33.3888 102.598 31.3741 104.146 30.0347 106.361C28.579 108.769 28.0937 111.636 28.738 114.033C29.1691 115.643 29.5741 116.805 29.8987 117.738C30.6003 119.756 30.9528 120.767 30.361 122.934C29.6364 125.587 27.0249 126.402 24.0019 127.348C20.979 128.293 17.5298 129.369 15.5216 132.633C13.9282 135.225 14.0642 137.764 14.2101 140.454C14.3511 143.092 14.4987 145.82 12.9183 148.651C10.4691 153.036 7.40522 155.261 2.67407 156.09L2.65112 156.095Z" fill="#84524D"/>
<path d="M23.2022 290.664L10.2383 290.47L14.1006 273.772L27.3137 275.972L23.2022 290.664Z" fill="#E2A18D"/>
<path d="M41.311 299.262H7.74219L10.834 286.441H23.9864L33.4946 289.339C38.1586 290.6 41.3586 294.662 41.311 299.262Z" fill="#D3BBA3"/>
<path d="M26.0664 289.851C26.0447 289.851 26.0233 289.846 26.0033 289.838C25.9833 289.829 25.9652 289.817 25.95 289.802C25.9195 289.771 25.9023 289.729 25.9023 289.686C25.9023 289.643 25.9195 289.601 25.95 289.57L28.0517 287.471C28.0824 287.44 28.1239 287.423 28.1672 287.423C28.2105 287.423 28.2521 287.44 28.2828 287.471C28.2982 287.486 28.3104 287.504 28.3187 287.524C28.327 287.544 28.3313 287.565 28.3313 287.587C28.3313 287.609 28.327 287.63 28.3187 287.65C28.3104 287.67 28.2982 287.688 28.2828 287.703L26.1812 289.802C26.1509 289.833 26.1096 289.85 26.0664 289.851Z" fill="#363E44"/>
<path d="M28.4492 290.566C28.4276 290.566 28.4063 290.562 28.3863 290.553C28.3663 290.545 28.3481 290.533 28.3328 290.518C28.3023 290.487 28.2852 290.446 28.2852 290.402C28.2852 290.359 28.3023 290.318 28.3328 290.287L30.4345 288.187C30.4497 288.172 30.4678 288.159 30.4878 288.151C30.5078 288.143 30.5292 288.138 30.5509 288.138C30.5725 288.138 30.5939 288.143 30.6139 288.151C30.6339 288.159 30.652 288.172 30.6673 288.187C30.6978 288.218 30.7149 288.259 30.7149 288.302C30.7149 288.346 30.6978 288.387 30.6673 288.418L28.5656 290.518C28.5503 290.533 28.5321 290.545 28.5122 290.553C28.4922 290.562 28.4708 290.566 28.4492 290.566Z" fill="#363E44"/>
<path d="M83.7139 293.164L70.75 292.969L71.15 273.772L84.3615 275.972L83.7139 293.164Z" fill="#E2A18D"/>
<path d="M101.568 299.262H67.9961L70.8863 286.441H84.2404L93.7486 289.339C98.4125 290.6 101.612 294.662 101.568 299.262Z" fill="#D3BBA3"/>
<path d="M86.3203 290.062C86.2987 290.062 86.2774 290.058 86.2574 290.05C86.2374 290.042 86.2192 290.03 86.2039 290.015C86.1734 289.984 86.1562 289.942 86.1562 289.899C86.1562 289.856 86.1734 289.814 86.2039 289.784L88.3056 287.684C88.3363 287.653 88.3778 287.636 88.4211 287.636C88.4644 287.636 88.506 287.653 88.5367 287.684C88.5672 287.714 88.5844 287.756 88.5844 287.799C88.5844 287.842 88.5672 287.884 88.5367 287.915L86.4351 290.015C86.4045 290.045 86.3633 290.062 86.3203 290.062Z" fill="#363E44"/>
<path d="M88.7079 290.779C88.6863 290.779 88.6649 290.775 88.6449 290.767C88.6249 290.758 88.6068 290.746 88.5915 290.731C88.5761 290.716 88.5639 290.698 88.5556 290.678C88.5473 290.658 88.543 290.636 88.543 290.615C88.543 290.593 88.5473 290.572 88.5556 290.552C88.5639 290.532 88.5761 290.514 88.5915 290.498L90.6931 288.4C90.7083 288.385 90.7265 288.372 90.7464 288.364C90.7664 288.356 90.7879 288.351 90.8095 288.351C90.8311 288.351 90.8526 288.356 90.8725 288.364C90.8925 288.372 90.9106 288.385 90.9259 288.4C90.9564 288.431 90.9736 288.472 90.9736 288.516C90.9736 288.559 90.9564 288.6 90.9259 288.631L88.8242 290.731C88.8089 290.746 88.7908 290.758 88.7708 290.767C88.7508 290.775 88.7294 290.779 88.7079 290.779Z" fill="#363E44"/>
<path d="M40.3286 163.993C40.3286 163.993 32.3204 181.79 26.9155 203.385C21.5105 224.98 11.9023 279.17 11.9023 279.17H26.7155C26.7155 279.17 55.9417 245.777 58.545 199.99L67.5532 163.798L40.3286 163.993Z" fill="#EFBC73"/>
<path d="M52.3359 206.785C52.3359 206.785 67.5507 228.78 68.7523 277.972H85.7671C85.7671 277.972 98.1786 250.377 91.1769 221.382C84.1753 192.387 72.7556 161.193 72.7556 161.193H54.5392L52.3359 206.785Z" fill="#EFBC73"/>
<path d="M57.2127 215.925H57.1849C57.1421 215.918 57.1038 215.894 57.0783 215.859C57.0528 215.824 57.0422 215.781 57.0488 215.738L60.0947 197.425C60.0985 197.403 60.1067 197.382 60.1188 197.363C60.131 197.345 60.1467 197.329 60.1652 197.316L64.5914 194.32C64.6091 194.306 64.6295 194.295 64.6513 194.29C64.6731 194.284 64.6959 194.282 64.7182 194.286C64.7405 194.289 64.7619 194.297 64.781 194.309C64.8001 194.321 64.8165 194.337 64.8292 194.356C64.8418 194.375 64.8505 194.396 64.8547 194.418C64.8588 194.44 64.8583 194.463 64.8533 194.485C64.8482 194.507 64.8386 194.528 64.8251 194.546C64.8117 194.564 64.7946 194.579 64.775 194.59L60.4013 197.541L57.3767 215.789C57.37 215.827 57.3499 215.862 57.3198 215.887C57.2898 215.912 57.2518 215.925 57.2127 215.925Z" fill="#363E44"/>
<path d="M69.0195 124.675C69.0195 124.675 105.577 146.479 100.762 156.533C95.9474 166.587 72.8359 156.533 72.8359 156.533L69.0195 124.675Z" fill="#5572D8"/>
<path d="M68.1851 124.284C64.2507 122.905 61.2229 122.316 55.2343 122.961C48.2606 123.713 37.7163 127.116 33.1688 129.826C23.0048 135.892 18.9688 141.138 18.9688 141.138L34.3786 144.6L27.1474 165.608C24.6376 172.898 25.7146 179.303 29.9442 185.751L40.6622 186.205L39.1802 175.834L44.4261 186.357L74.6622 166.049L75.795 147.361C75.795 147.361 75.0392 126.68 68.1851 124.284Z" fill="#5572D8"/>
<path d="M75.3241 157.695C75.2806 157.695 75.2389 157.678 75.2082 157.647C75.1774 157.616 75.1602 157.575 75.1602 157.531L75.2683 151.103C75.2683 151.06 75.2856 151.018 75.3164 150.987C75.3471 150.957 75.3888 150.939 75.4323 150.939C75.4758 150.939 75.5175 150.957 75.5482 150.987C75.5789 151.018 75.5962 151.06 75.5962 151.103L75.488 157.533C75.4876 157.576 75.4701 157.617 75.4394 157.648C75.4087 157.678 75.3673 157.695 75.3241 157.695Z" fill="#363E44"/>
<path d="M63.7508 146.68C63.7291 146.68 63.7077 146.676 63.6877 146.667C63.6677 146.659 63.6496 146.647 63.6344 146.631C63.6191 146.616 63.6069 146.598 63.5985 146.578C63.5902 146.558 63.5859 146.536 63.5859 146.515C63.5859 146.493 63.5902 146.472 63.5985 146.452C63.6069 146.432 63.6191 146.414 63.6344 146.398L70.3951 139.81C70.4103 139.794 70.4285 139.782 70.4484 139.774C70.4684 139.766 70.4898 139.761 70.5115 139.761C70.5331 139.761 70.5545 139.766 70.5745 139.774C70.5945 139.782 70.6126 139.794 70.6279 139.81C70.6584 139.841 70.6755 139.882 70.6755 139.925C70.6755 139.969 70.6584 140.01 70.6279 140.041L63.8672 146.629C63.8522 146.645 63.8341 146.658 63.8141 146.667C63.7942 146.675 63.7726 146.68 63.7508 146.68Z" fill="#363E44"/>
<path d="M66.0477 149.016C66.015 149.017 65.9829 149.007 65.9557 148.989C65.9284 148.971 65.9073 148.945 65.8949 148.914C65.8826 148.884 65.8796 148.851 65.8864 148.819C65.8932 148.786 65.9094 148.757 65.933 148.734L72.6936 142.146C72.709 142.131 72.7272 142.119 72.7472 142.111C72.7672 142.103 72.7886 142.099 72.8101 142.099C72.8317 142.099 72.853 142.104 72.8728 142.112C72.8926 142.121 72.9105 142.133 72.9256 142.148C72.9407 142.164 72.9526 142.182 72.9606 142.202C72.9686 142.222 72.9726 142.243 72.9724 142.265C72.9722 142.286 72.9677 142.308 72.9593 142.328C72.9508 142.347 72.9385 142.365 72.9232 142.38L66.1625 148.969C66.132 148.999 66.0907 149.016 66.0477 149.016Z" fill="#363E44"/>
<path d="M52.1586 165.738C51.5799 165.737 51.007 165.623 50.4725 165.401C49.9381 165.179 49.4526 164.854 49.0439 164.444L48.3619 163.77C47.5377 162.943 47.076 161.821 47.0781 160.653C47.0803 159.485 47.5462 158.366 48.3734 157.541L68.6242 137.377C69.0006 137.002 69.5102 136.792 70.0414 136.792C70.5726 136.792 71.0822 137.002 71.4586 137.377L75.5357 141.464C75.7219 141.65 75.8696 141.871 75.9704 142.114C76.0712 142.357 76.1231 142.618 76.1231 142.881C76.1231 143.144 76.0712 143.405 75.9704 143.648C75.8696 143.891 75.7219 144.112 75.5357 144.298L55.2832 164.462C54.872 164.87 54.3843 165.193 53.8481 165.412C53.3119 165.63 52.7377 165.741 52.1586 165.738ZM48.5881 163.531L49.2685 164.211C50.0333 164.977 51.0704 165.408 52.1525 165.41C53.2345 165.411 54.2731 164.984 55.0406 164.221L75.293 144.057C75.449 143.902 75.5727 143.717 75.6571 143.514C75.7415 143.31 75.785 143.092 75.785 142.872C75.785 142.652 75.7415 142.434 75.6571 142.23C75.5727 142.027 75.449 141.842 75.293 141.687L71.216 137.6C70.9013 137.286 70.4751 137.11 70.0307 137.11C69.5864 137.11 69.1602 137.286 68.8455 137.6L48.5947 157.764C48.2147 158.142 47.913 158.591 47.7068 159.086C47.5006 159.581 47.3941 160.112 47.3931 160.648C47.3922 161.184 47.497 161.715 47.7015 162.211C47.906 162.706 48.2061 163.157 48.5848 163.536L48.5881 163.531Z" fill="#363E44"/>
<path d="M75.2454 141.61C75.2239 141.61 75.2025 141.606 75.1825 141.598C75.1625 141.589 75.1443 141.577 75.129 141.562L71.3405 137.764C71.3253 137.749 71.3133 137.73 71.3051 137.71C71.297 137.691 71.2928 137.669 71.293 137.648C71.2936 137.604 71.3113 137.563 71.3421 137.533L83.834 125.131C83.8647 125.101 83.9062 125.083 83.9495 125.083C83.9928 125.083 84.0344 125.101 84.0651 125.131L87.8684 128.93C87.8836 128.945 87.8956 128.963 87.9037 128.983C87.9119 129.003 87.916 129.024 87.9159 129.046C87.9157 129.089 87.8987 129.13 87.8684 129.161L75.3766 141.562C75.3596 141.579 75.339 141.592 75.3163 141.601C75.2936 141.609 75.2694 141.612 75.2454 141.61ZM71.6897 137.649L75.2454 141.215L87.5061 129.044L83.9487 125.479L71.6897 137.649Z" fill="#363E44"/>
<path d="M115.329 135.166C136.511 135.166 153.681 118.014 153.681 96.8557C153.681 75.6978 136.511 58.5459 115.329 58.5459C94.1475 58.5459 76.9766 75.6978 76.9766 96.8557C76.9766 118.014 94.1475 135.166 115.329 135.166Z" fill="#F7F1EB"/>
<path d="M115.331 135.852C106.305 135.848 97.5596 132.715 90.5847 126.986C83.6098 121.257 78.8369 113.288 77.0791 104.434C75.3213 95.5812 76.6874 86.3925 80.9446 78.4335C85.2018 70.4746 92.0868 64.2379 100.427 60.7859C108.766 57.3339 118.045 56.8802 126.682 59.502C135.319 62.1238 142.779 67.659 147.793 75.1646C152.806 82.6702 155.062 91.6818 154.177 100.664C153.291 109.647 149.318 118.044 142.936 124.426C139.318 128.06 135.015 130.941 130.277 132.902C125.539 134.864 120.459 135.866 115.331 135.852ZM115.331 58.2066C107.679 58.1925 100.195 60.4503 93.8275 64.694C87.4601 68.9376 82.4957 74.9761 79.5636 82.044C76.6315 89.112 75.8636 96.8913 77.3573 104.396C78.851 111.901 82.539 118.793 87.9539 124.2C103.047 139.282 127.606 139.282 142.708 124.2C148.12 118.792 151.806 111.9 153.299 104.396C154.791 96.8921 154.023 89.114 151.091 82.0471C148.159 74.9801 143.196 68.9422 136.83 64.6981C130.464 60.4541 122.982 58.1948 115.331 58.2066Z" fill="#363E44"/>
<path d="M90.682 72.4C90.6389 72.3998 90.5977 72.3828 90.5672 72.3525C90.5367 72.3218 90.5195 72.2802 90.5195 72.2369C90.5195 72.1936 90.5367 72.152 90.5672 72.1213C95.4341 67.2502 101.63 63.9228 108.378 62.5558C115.127 61.1887 122.129 61.8428 128.508 64.4361C128.546 64.4541 128.575 64.4858 128.59 64.5247C128.605 64.5637 128.605 64.6069 128.589 64.6455C128.574 64.6842 128.544 64.7155 128.506 64.7329C128.468 64.7503 128.425 64.7526 128.385 64.7394C122.066 62.1703 115.129 61.5223 108.443 62.8765C101.758 64.2307 95.6199 67.5269 90.7984 72.3525C90.783 72.3677 90.7649 72.3797 90.7449 72.3879C90.7249 72.396 90.7035 72.4001 90.682 72.4Z" fill="#363E44"/>
<path d="M115.342 131.841C112.931 131.841 110.527 131.594 108.167 131.103C101.498 129.72 95.3796 126.414 90.5668 121.595C90.5399 121.564 90.5259 121.523 90.5275 121.482C90.5291 121.441 90.5462 121.402 90.5754 121.373C90.6046 121.343 90.6437 121.326 90.6849 121.325C90.7262 121.323 90.7666 121.337 90.7979 121.364C95.5131 126.057 101.474 129.301 107.975 130.712C114.476 132.123 121.245 131.643 127.482 129.328C127.502 129.318 127.524 129.313 127.547 129.313C127.57 129.312 127.592 129.316 127.613 129.325C127.634 129.334 127.653 129.346 127.669 129.363C127.684 129.379 127.697 129.398 127.705 129.42C127.712 129.441 127.716 129.464 127.714 129.486C127.713 129.509 127.707 129.531 127.697 129.551C127.686 129.571 127.672 129.589 127.654 129.603C127.637 129.618 127.616 129.628 127.595 129.634C123.675 131.095 119.525 131.842 115.342 131.841Z" fill="#363E44"/>
<path d="M112.112 118.51L93.5469 99.3967L100.253 93.1689L111.05 103.913L129.583 77.0033L137.122 82.1951L112.112 118.51Z" fill="#E74C2A"/>
<path d="M61.7179 150.082C60.2097 150.539 53.6376 151.436 52.6081 154.344C51.5786 157.252 52.7523 160.489 54.6982 162.902H54.7359C55.5081 163.28 56.7195 163.721 58.1359 163.557C59.7507 163.367 60.0835 162.559 61.7572 162.093C64.5818 161.308 66.4392 162.913 66.9146 161.992C67.2425 161.359 66.1999 160.377 65.0163 159.728C63.7999 159.064 62.7212 159.146 62.7212 158.918C62.7212 158.69 63.8195 158.726 65.19 158.672C65.8277 158.646 67.613 159.656 68.1884 158.852C68.6458 158.215 67.0523 156.705 65.172 156.318C63.8425 156.046 62.6835 156.682 62.6113 156.446C62.5556 156.269 63.2556 155.907 63.9507 155.772C65.0982 155.551 66.9359 156.561 67.449 155.815C67.9622 155.069 66.5392 153.789 64.8261 153.325C63.3867 152.933 62.1294 153.703 62.0392 153.411C61.9736 153.205 62.4654 152.743 63.7343 152.123C64.7933 151.605 67.1867 151.279 66.8146 150.095C66.5146 149.11 63.9949 149.393 61.7179 150.082Z" fill="#E2A18D"/>
<path d="M29.4361 156.721C26.1197 157.767 23.8115 160.846 23.8886 164.305C23.9394 166.572 25.0214 168.926 28.5509 170.382C37.1443 173.926 56.6197 161.841 56.6197 161.841L59.0165 150.718C47.8083 152.575 38.5673 153.843 29.4361 156.721Z" fill="#E2A18D"/>
<path d="M40.8209 153.848L42.4308 170.457L27.6881 172.736C18.2209 174.198 1.17831 173.897 4.67175 160.879C6.84224 152.79 16.4881 142.743 26.1177 134.57L38.7013 138.307L33.2914 154.146L40.8209 153.848Z" fill="#5572D8"/>
<path d="M29.442 154.464C29.4023 154.464 29.3639 154.45 29.3338 154.425C29.301 154.396 29.2808 154.356 29.2778 154.312C29.2747 154.269 29.2889 154.226 29.3174 154.193L35.6174 146.882C35.6459 146.849 35.6863 146.829 35.7298 146.825C35.7733 146.822 35.8163 146.836 35.8494 146.865C35.8824 146.893 35.9028 146.934 35.906 146.977C35.9092 147.021 35.895 147.064 35.8666 147.097L29.5649 154.407C29.5497 154.424 29.5309 154.439 29.5097 154.449C29.4885 154.458 29.4654 154.464 29.442 154.464Z" fill="#363E44"/>
<path d="M25.826 173.193C25.7864 173.194 25.7481 173.18 25.718 173.154C25.6878 173.129 25.668 173.093 25.662 173.054C25.6588 173.033 25.6598 173.011 25.6649 172.99C25.6701 172.969 25.6793 172.949 25.6921 172.932C25.7049 172.915 25.721 172.9 25.7395 172.889C25.7579 172.878 25.7784 172.87 25.7997 172.867L42.2588 170.328L41.8883 166.503C41.8842 166.46 41.8974 166.417 41.9251 166.383C41.9527 166.35 41.9926 166.329 42.0358 166.325C42.0788 166.32 42.1217 166.333 42.1552 166.361C42.1886 166.388 42.2099 166.428 42.2145 166.47L42.5997 170.451C42.6036 170.492 42.5915 170.534 42.5659 170.567C42.5403 170.599 42.5032 170.621 42.462 170.628L25.8506 173.198L25.826 173.193Z" fill="#363E44"/>
<path d="M19.3319 154.866C19.2884 154.866 19.2467 154.848 19.216 154.818C19.1852 154.787 19.168 154.745 19.168 154.702C19.168 154.658 19.1852 154.616 19.216 154.586C19.2467 154.555 19.2884 154.538 19.3319 154.538L40.8204 153.684C40.8639 153.682 40.9063 153.697 40.9383 153.727C40.9702 153.756 40.9892 153.798 40.9909 153.841C40.9927 153.884 40.9771 153.927 40.9475 153.959C40.918 153.991 40.877 154.01 40.8335 154.011L19.345 154.866H19.3319Z" fill="#363E44"/>
<path d="M75.7812 141.446L87.7485 155.098C90.4468 158.189 95.6485 159.436 98.719 156.533C102.05 153.38 101.178 148.775 96.9157 144.93L83.8747 133.346L75.7812 141.446Z" fill="#E2A18D"/>
<path d="M83.426 129.685C81.7014 129.408 79.4309 129.839 79.2752 130.798C79.1932 131.315 79.7424 131.877 80.5342 132.331C79.1375 132.464 77.9113 132.933 77.7916 133.679C77.6965 134.262 78.3031 134.898 79.1867 135.42C78.1834 135.634 77.408 136.048 77.3145 136.633C77.1932 137.379 78.208 138.21 79.4932 138.774C78.5982 138.956 77.8998 139.316 77.8162 139.833C77.6604 140.792 79.6801 141.916 81.4047 142.193C83.1293 142.47 83.9063 141.8 84.0621 140.841C84.1228 140.542 84.0941 140.233 83.9795 139.95C83.8649 139.668 83.6695 139.426 83.4178 139.254C83.6972 139.133 83.9438 138.948 84.1375 138.713C84.3312 138.478 84.4665 138.201 84.5321 137.904C84.5977 137.607 84.5918 137.298 84.515 137.004C84.4381 136.709 84.2924 136.437 84.09 136.21C84.3546 136.059 84.5795 135.847 84.7462 135.592C84.9128 135.337 85.0165 135.046 85.0485 134.743C85.0805 134.44 85.04 134.134 84.9304 133.85C84.8207 133.565 84.645 133.311 84.4178 133.108C84.7119 133.024 84.9744 132.855 85.172 132.621C85.3695 132.388 85.4933 132.101 85.5277 131.797C85.6768 130.846 85.1506 129.964 83.426 129.685Z" fill="#E2A18D"/>
<path d="M82.1325 142.421C81.8776 142.42 81.6232 142.398 81.3719 142.356C80.4663 142.204 79.5976 141.882 78.8112 141.408C77.9784 140.89 77.5637 140.321 77.6473 139.807C77.7227 139.338 78.1981 138.961 78.9997 138.725C78.7834 138.613 78.5784 138.497 78.3899 138.375C78.3534 138.352 78.3278 138.314 78.3187 138.272C78.3096 138.229 78.3179 138.185 78.3415 138.148C78.3652 138.112 78.4025 138.086 78.4451 138.077C78.4876 138.068 78.5321 138.076 78.5686 138.1C78.8819 138.301 79.2108 138.475 79.5522 138.623C79.5844 138.637 79.6113 138.661 79.629 138.691C79.6467 138.721 79.6543 138.756 79.6506 138.791C79.647 138.826 79.6322 138.858 79.6086 138.884C79.585 138.91 79.5538 138.928 79.5194 138.934C78.6129 139.118 78.0342 139.464 77.9702 139.859C77.9112 140.23 78.2801 140.692 78.985 141.13C79.734 141.581 80.5616 141.888 81.4243 142.033C82.8522 142.264 83.7292 141.83 83.8932 140.815C83.9503 140.546 83.9257 140.267 83.8225 140.012C83.7194 139.758 83.5425 139.54 83.3145 139.387C83.291 139.37 83.2725 139.346 83.261 139.32C83.2495 139.293 83.2453 139.263 83.2489 139.234C83.2524 139.205 83.2637 139.177 83.2815 139.154C83.2994 139.131 83.3233 139.113 83.3506 139.102C83.6067 138.991 83.833 138.822 84.0106 138.607C84.1883 138.392 84.3123 138.138 84.3724 137.866C84.4324 137.594 84.4268 137.311 84.3561 137.041C84.2853 136.771 84.1513 136.522 83.9653 136.315C83.9479 136.296 83.9351 136.274 83.9277 136.25C83.9203 136.226 83.9186 136.2 83.9227 136.175C83.9268 136.151 83.9367 136.127 83.9515 136.106C83.9663 136.086 83.9856 136.069 84.0079 136.057C84.2479 135.918 84.4516 135.724 84.6021 135.491C84.7527 135.257 84.8459 134.992 84.8742 134.716C84.9025 134.44 84.8651 134.161 84.7649 133.902C84.6648 133.643 84.5048 133.411 84.2981 133.226C84.2747 133.207 84.2573 133.181 84.2477 133.152C84.2382 133.123 84.2369 133.092 84.244 133.062C84.2497 133.033 84.2631 133.007 84.2827 132.985C84.3023 132.963 84.3274 132.947 84.3555 132.938C84.6202 132.864 84.8568 132.713 85.0347 132.504C85.2127 132.295 85.3238 132.037 85.3538 131.764C85.3817 131.591 85.3817 131.415 85.3538 131.243C85.3503 131.221 85.3511 131.2 85.356 131.178C85.361 131.157 85.37 131.138 85.3827 131.12C85.3953 131.103 85.4113 131.088 85.4297 131.076C85.4481 131.065 85.4686 131.058 85.4899 131.054C85.5327 131.048 85.5764 131.058 85.6114 131.084C85.6464 131.109 85.6699 131.147 85.6768 131.19C85.7112 131.398 85.7112 131.609 85.6768 131.816C85.6426 132.104 85.5353 132.377 85.3651 132.611C85.1949 132.845 84.9675 133.032 84.7047 133.152C84.914 133.378 85.0668 133.651 85.1505 133.947C85.2343 134.243 85.2467 134.555 85.1866 134.857C85.1508 135.134 85.0564 135.401 84.9097 135.638C84.763 135.876 84.5674 136.08 84.3358 136.236C84.506 136.457 84.6273 136.712 84.6914 136.984C84.7556 137.255 84.7612 137.538 84.7079 137.811C84.6714 138.119 84.5622 138.413 84.3895 138.669C84.2167 138.926 83.9854 139.138 83.7145 139.287C83.926 139.484 84.0833 139.733 84.1711 140.008C84.259 140.284 84.2745 140.577 84.2161 140.861C84.1424 141.367 83.7719 142.421 82.1325 142.421Z" fill="#363E44"/>
<path d="M45.866 113.024L44.9217 113.006C43.0276 112.968 41.4615 114.472 41.4236 116.366L41.1976 127.668C41.1597 129.562 42.6644 131.128 44.5585 131.166L45.5027 131.185C47.3968 131.223 48.963 129.718 49.0008 127.824L49.2269 116.523C49.2648 114.628 47.76 113.062 45.866 113.024Z" fill="#E2A18D"/>
<path d="M54.9935 117.061C54.5231 120.318 46.8165 120.066 46.8165 120.066L38.8575 117.684C38.5067 116.372 41.3575 113.387 44.3165 110.623C45.9558 109.095 45.0575 105.398 45.0575 105.398C46.7876 105.594 48.3911 106.401 49.5788 107.674C49.5788 107.674 55.4067 114.161 54.9935 117.061Z" fill="#E2A18D"/>
<path d="M47.1927 120.595C46.955 120.595 46.8173 120.595 46.8124 120.595C46.7689 120.595 46.7272 120.578 46.6965 120.547C46.6657 120.516 46.6484 120.475 46.6484 120.431C46.6484 120.388 46.6657 120.346 46.6965 120.315C46.7272 120.284 46.7689 120.267 46.8124 120.267C47.8641 120.287 48.9159 120.232 49.9599 120.103C50.0034 120.098 50.0473 120.109 50.0821 120.136C50.1168 120.163 50.1395 120.202 50.1452 120.246C50.1508 120.289 50.139 120.333 50.1122 120.368C50.0855 120.403 50.046 120.425 50.0025 120.431C49.0702 120.543 48.1318 120.598 47.1927 120.595Z" fill="#363E44"/>
<path d="M50.7891 110.108C50.7891 110.108 53.712 110.693 53.9481 111.221C54.2317 111.852 52.5907 113.505 52.5907 113.505C52.5907 113.505 50.8366 110.08 50.7891 110.108Z" fill="#E2A18D"/>
<path d="M44.5898 112.6C45.0215 111.901 45.6026 111.306 46.2915 110.859C46.5259 110.713 47.2521 112.854 46.9636 112.887C46.1609 112.964 45.3511 112.866 44.5898 112.6Z" fill="white"/>
<path d="M46.3171 110.782C46.4138 110.359 46.6338 109.974 46.9494 109.676C47.2649 109.379 47.6617 109.181 48.0896 109.109C48.5175 109.037 48.9571 109.093 49.3528 109.271C49.7485 109.449 50.0825 109.741 50.3125 110.109C50.5425 110.477 50.658 110.904 50.6446 111.338C50.6312 111.772 50.4893 112.192 50.237 112.545C49.9847 112.898 49.6333 113.168 49.2273 113.321C48.8213 113.474 48.3791 113.503 47.9565 113.405C47.3917 113.274 46.9019 112.924 46.5946 112.432C46.2873 111.941 46.1875 111.347 46.3171 110.782Z" fill="#363E44"/>
<path d="M40.2137 119.726C41.6891 120.403 43.3284 119.998 43.8694 118.825C44.4104 117.651 43.6432 116.148 42.1629 115.47C40.6825 114.793 39.0481 115.198 38.5088 116.374C37.9694 117.549 38.735 119.049 40.2137 119.726Z" fill="#E2A18D"/>
<path d="M37.9888 117.762C37.9498 117.763 37.9118 117.749 37.8818 117.725C37.8517 117.7 37.8315 117.665 37.8249 117.626C37.7881 117.122 37.8712 116.617 38.0675 116.151C38.7052 114.961 40.6102 114.579 42.2282 115.318C42.3563 115.377 42.4811 115.442 42.602 115.515C42.6348 115.539 42.6576 115.574 42.666 115.614C42.6743 115.653 42.6677 115.695 42.6473 115.73C42.6269 115.765 42.5942 115.791 42.5555 115.803C42.5169 115.816 42.475 115.813 42.438 115.797C42.327 115.731 42.2126 115.671 42.0954 115.616C40.6544 114.961 38.9085 115.289 38.3593 116.307C38.1985 116.707 38.1274 117.138 38.1511 117.569C38.1583 117.612 38.1481 117.656 38.1229 117.691C38.0977 117.726 38.0595 117.75 38.0167 117.757L37.9888 117.762Z" fill="#363E44"/>
<path d="M51.3856 115.374C51.1972 115.373 51.0116 115.328 50.8437 115.242C50.6758 115.157 50.5302 115.034 50.4184 114.882C50.4056 114.865 50.3964 114.845 50.3913 114.824C50.3863 114.803 50.3854 114.781 50.3887 114.76C50.3921 114.738 50.3996 114.718 50.4109 114.7C50.4221 114.681 50.4369 114.665 50.4544 114.652C50.4893 114.627 50.5328 114.616 50.5754 114.623C50.6181 114.629 50.6565 114.652 50.6823 114.687C50.7789 114.82 50.9115 114.923 51.0645 114.983C51.2176 115.044 51.3847 115.059 51.5462 115.028C51.7078 114.996 51.857 114.92 51.9763 114.806C52.0957 114.693 52.1802 114.548 52.22 114.389C52.2305 114.346 52.2572 114.31 52.2944 114.288C52.3316 114.265 52.3762 114.258 52.4184 114.269C52.4394 114.274 52.4592 114.283 52.4766 114.296C52.4941 114.309 52.5088 114.325 52.5199 114.344C52.5311 114.362 52.5384 114.383 52.5415 114.405C52.5446 114.426 52.5434 114.448 52.538 114.469C52.481 114.691 52.3615 114.893 52.1935 115.049C52.0256 115.206 51.8163 115.311 51.5905 115.352C51.5229 115.365 51.4543 115.372 51.3856 115.374Z" fill="#363E44"/>
<path d="M49.1712 102.198L49.0942 102.056C48.3058 100.671 47.2525 99.4554 45.9943 98.4779C44.736 97.5004 43.2976 96.7803 41.7611 96.3587C38.658 95.5073 35.3438 95.9234 32.5475 97.5156C29.7512 99.1077 27.7019 101.746 26.8504 104.849C25.999 107.952 26.4151 111.266 28.0073 114.062C28.0352 114.11 28.0647 114.154 28.0925 114.202L49.1712 102.198Z" fill="#8B865C"/>
<path d="M27.5423 108.63H27.5227C27.4797 108.624 27.4405 108.602 27.4138 108.568C27.3871 108.534 27.3749 108.491 27.38 108.448C27.6013 106.575 28.2502 104.779 29.2765 103.197C30.3028 101.616 31.679 100.292 33.2988 99.327C34.9186 98.3623 36.7385 97.783 38.6179 97.6339C40.4973 97.4848 42.3858 97.7699 44.1374 98.4672C44.176 98.4843 44.2066 98.5157 44.2226 98.5548C44.2387 98.5939 44.239 98.6376 44.2236 98.677C44.2081 98.7163 44.1781 98.7481 44.1398 98.7659C44.1014 98.7836 44.0577 98.7859 44.0177 98.7721C42.313 98.0933 40.4749 97.8156 38.6457 97.9604C36.8165 98.1053 35.0451 98.6689 33.4684 99.6076C31.8918 100.546 30.5521 101.835 29.5529 103.374C28.5538 104.913 27.922 106.661 27.7063 108.484C27.7018 108.524 27.6826 108.561 27.6523 108.588C27.622 108.615 27.5829 108.63 27.5423 108.63Z" fill="#EFBC73"/>
<path d="M29.1245 109.861C29.1142 109.862 29.1037 109.862 29.0934 109.861C29.0508 109.852 29.0133 109.827 28.989 109.792C28.9647 109.756 28.9557 109.711 28.9639 109.669C29.5967 106.405 31.8606 103.382 35.0213 101.584C38.0737 99.8459 41.5934 99.4033 44.6754 100.369C44.7169 100.382 44.7515 100.411 44.7717 100.449C44.7918 100.488 44.7958 100.533 44.7827 100.575C44.7697 100.616 44.7407 100.651 44.7021 100.671C44.6635 100.691 44.6185 100.695 44.577 100.682C41.5803 99.7426 38.1573 100.175 35.1835 101.869C32.1049 103.621 29.8999 106.561 29.2819 109.738C29.2729 109.773 29.2526 109.804 29.2241 109.826C29.1956 109.848 29.1607 109.86 29.1245 109.861Z" fill="#EFBC73"/>
<path d="M53.9605 102.579L27.8785 117.431C27.5678 117.6 27.2032 117.64 26.8631 117.543C26.523 117.446 26.2346 117.22 26.0596 116.912C25.8847 116.605 25.8373 116.241 25.9276 115.899C26.0178 115.557 26.2386 115.265 26.5425 115.084L52.6228 100.231C52.7771 100.139 52.9482 100.079 53.1261 100.054C53.304 100.029 53.4851 100.04 53.6588 100.086C53.8325 100.132 53.9953 100.212 54.1376 100.321C54.28 100.431 54.3991 100.567 54.488 100.724C54.5768 100.88 54.6336 101.052 54.6551 101.23C54.6766 101.409 54.6622 101.589 54.613 101.762C54.5637 101.935 54.4805 102.096 54.3682 102.236C54.2558 102.377 54.1167 102.493 53.9589 102.579H53.9605Z" fill="#8B865C"/>
<path d="M212.424 240.285L212.383 251.269L217.601 251.287C218.052 252.958 218.713 254.566 219.568 256.072L215.865 259.748L223.598 267.538L227.301 263.861C228.801 264.724 230.403 265.395 232.071 265.857L232.052 271.075L243.035 271.115L243.055 265.898C244.726 265.446 246.334 264.785 247.84 263.931L251.516 267.633L259.304 259.902L255.629 256.198C256.492 254.698 257.163 253.096 257.625 251.428L262.842 251.446L262.883 240.462L257.665 240.444C257.213 238.773 256.552 237.165 255.698 235.659L259.401 231.982L251.668 224.193L247.957 227.869C246.457 227.005 244.854 226.334 243.186 225.871L243.206 220.654L232.222 220.615L232.202 225.831C230.531 226.284 228.924 226.945 227.417 227.798L223.75 224.098L215.961 231.831L219.637 235.534C218.774 237.035 218.103 238.637 217.64 240.305L212.424 240.285ZM237.67 234.441C239.929 234.449 242.135 235.128 244.009 236.39C245.882 237.652 247.34 239.441 248.197 241.532C249.053 243.622 249.271 245.919 248.822 248.134C248.373 250.348 247.278 252.379 245.675 253.971C244.071 255.562 242.032 256.643 239.815 257.075C237.597 257.508 235.302 257.273 233.217 256.401C231.133 255.529 229.355 254.059 228.106 252.176C226.858 250.293 226.196 248.082 226.204 245.823C226.209 244.323 226.51 242.839 227.089 241.455C227.668 240.071 228.514 238.815 229.579 237.758C230.643 236.701 231.906 235.864 233.294 235.295C234.681 234.726 236.168 234.436 237.668 234.441H237.67Z" fill="#E6D0BE"/>
<path d="M284.239 271.633L270.714 259.143L266.566 266.47L284.239 271.633Z" fill="#F7F1EB"/>
<path d="M276.738 269.416L284.145 271.582L278.476 266.346L276.738 269.416Z" fill="#363E44"/>
<path d="M179.18 213.708L180.491 211.397C180.678 211.066 180.927 210.776 181.226 210.542C181.525 210.309 181.867 210.136 182.232 210.035C182.598 209.934 182.98 209.906 183.356 209.953C183.733 210 184.096 210.12 184.426 210.308L270.717 259.143L266.572 266.47L180.28 217.636C179.949 217.451 179.659 217.202 179.425 216.904C179.191 216.606 179.018 216.265 178.915 215.9C178.813 215.535 178.784 215.154 178.829 214.778C178.875 214.402 178.994 214.038 179.18 213.708Z" fill="#E74C2A"/>
<path d="M269.258 261.943C269.23 261.943 269.203 261.935 269.178 261.921L194.588 219.713C194.569 219.703 194.552 219.688 194.539 219.671C194.526 219.654 194.516 219.635 194.51 219.614C194.504 219.593 194.502 219.571 194.505 219.55C194.508 219.528 194.515 219.507 194.526 219.489C194.547 219.451 194.583 219.424 194.625 219.412C194.666 219.401 194.711 219.406 194.749 219.428L269.342 261.639C269.38 261.661 269.408 261.696 269.419 261.738C269.431 261.78 269.426 261.824 269.404 261.862C269.389 261.887 269.368 261.908 269.342 261.922C269.317 261.936 269.288 261.943 269.258 261.943Z" fill="#363E44"/>
<path d="M267.48 265.092C267.451 265.091 267.424 265.084 267.399 265.071L192.809 222.861C192.79 222.85 192.774 222.836 192.761 222.818C192.748 222.801 192.738 222.782 192.732 222.761C192.727 222.74 192.725 222.718 192.728 222.697C192.731 222.675 192.738 222.655 192.748 222.636C192.759 222.617 192.774 222.601 192.791 222.588C192.808 222.575 192.827 222.565 192.848 222.559C192.869 222.554 192.891 222.552 192.912 222.555C192.934 222.558 192.954 222.565 192.973 222.575L267.563 264.785C267.595 264.803 267.619 264.831 267.633 264.864C267.647 264.897 267.65 264.934 267.641 264.969C267.632 265.004 267.611 265.035 267.583 265.057C267.554 265.08 267.519 265.092 267.483 265.092H267.48Z" fill="#363E44"/>
<path d="M192.01 224.443C191.982 224.443 191.954 224.435 191.93 224.421C191.892 224.4 191.865 224.364 191.853 224.322C191.842 224.281 191.848 224.236 191.869 224.198L196.015 216.871C196.037 216.833 196.072 216.806 196.114 216.794C196.156 216.783 196.2 216.788 196.238 216.81C196.276 216.831 196.303 216.867 196.315 216.908C196.327 216.95 196.321 216.995 196.3 217.033L192.154 224.359C192.14 224.385 192.119 224.406 192.094 224.421C192.068 224.435 192.039 224.443 192.01 224.443Z" fill="#363E44"/>
<path d="M187.574 221.931C187.546 221.931 187.518 221.924 187.493 221.91C187.456 221.888 187.428 221.853 187.416 221.811C187.405 221.769 187.41 221.725 187.431 221.687L191.577 214.361C191.588 214.342 191.602 214.326 191.619 214.312C191.636 214.299 191.656 214.289 191.677 214.284C191.698 214.278 191.719 214.277 191.741 214.279C191.762 214.282 191.783 214.289 191.802 214.3C191.82 214.311 191.837 214.325 191.85 214.342C191.863 214.359 191.873 214.379 191.878 214.4C191.884 214.421 191.886 214.442 191.883 214.464C191.88 214.485 191.873 214.506 191.862 214.525L187.716 221.851C187.702 221.876 187.681 221.896 187.656 221.91C187.631 221.924 187.602 221.931 187.574 221.931Z" fill="#363E44"/>
<path d="M262.83 251.443L262.871 240.459L257.653 240.441C257.201 238.769 256.54 237.162 255.686 235.656L259.389 231.979L251.656 224.19L247.958 227.869C247.19 227.426 246.395 227.034 245.576 226.695C244.368 229.556 243.209 232.433 242.074 235.333C244.805 236.488 246.98 238.66 248.139 241.39C249.297 244.119 249.349 247.192 248.284 249.96C247.218 252.727 245.119 254.971 242.428 256.219C239.738 257.466 236.668 257.619 233.868 256.644C232.72 259.536 231.547 262.415 230.32 265.272C230.891 265.487 231.468 265.679 232.068 265.843L232.048 271.061L243.032 271.1L243.051 265.884C244.723 265.431 246.33 264.77 247.837 263.916L251.512 267.618L259.301 259.885L255.625 256.184C256.489 254.684 257.16 253.081 257.622 251.413L262.83 251.443Z" fill="#E6D0BE"/>
</g>
<defs>
<clipPath id="clip0_149_153664">
<rect width="300" height="300" fill="white"/>
</clipPath>
</defs>
</svg>
